<?xml version="1.0" encoding="utf-8"?>
<!-- Generator: Adobe Illustrator 22.1.0, SVG Export Plug-In . SVG Version: 6.00 Build 0)  -->
<svg version="1.1" id="Layer_1" xmlns="http://www.w3.org/2000/svg" xmlns:xlink="http://www.w3.org/1999/xlink" x="0px" y="0px"
	 viewBox="0 0 65 65" style="enable-background:new 0 0 65 65;" xml:space="preserve">
<style type="text/css">
	.st0{fill:#00AAAD;}
	.st1{fill:#FFFFFF;}
	.st2{fill:#A72428;}
	.st3{fill:url(#SVGID_1_);}
</style>
<g>
	<rect y="0" class="st0" width="65" height="65"/>
	<path class="st1" d="M2.7,60.4C2.7,60.4,2.6,60.4,2.7,60.4c-0.3-0.3-0.3-0.4-0.3-0.7c0-0.2,0-0.4,0.1-0.6l0.4-1.2
		c0.1-0.4,0.2-0.8,0.4-1.1l0.4-1.2c0.1-0.2,0.2-0.4,0.2-0.6c0.1-0.2,0.2-0.4,0.3-0.6c0.1-0.1,0.1-0.2,0.2-0.3s0.2-0.2,0.3-0.2l0,0
		c0.1,0,0.1,0,0.2,0c0,0.1,0,0.1,0.1,0.2s0.1,0.2,0.2,0.3v0.2c0,0.1,0,0.2-0.1,0.3c-0.4,0.9-0.8,1.7-1.2,2.6l-0.3,0.9l-0.3,0.9
		L3,60.2C2.8,60.3,2.8,60.4,2.7,60.4L2.7,60.4z"/>
	<path class="st1" d="M5,54.9c-0.4,0.9-0.8,1.7-1.2,2.6l-0.3,0.9l-0.3,0.9l-0.3,0.9l-0.1,0.1H2.7c-0.1-0.1-0.2-0.3-0.2-0.5
		s0-0.4,0.1-0.6L3,58c0.1-0.4,0.2-0.8,0.4-1.1l0.4-1.2C3.9,55.5,4,55.3,4,55.1c0.1-0.2,0.2-0.4,0.3-0.6c0.1-0.1,0.1-0.2,0.2-0.3
		c-0.1-0.1,0-0.2,0.1-0.2s0.1,0,0.2,0l0.1,0.1C5,54.2,5,54.3,5.1,54.4v0.1v0.1C5.1,54.7,5.1,54.8,5,54.9z"/>
	<path class="st1" d="M8.1,60c-0.1,0-0.2,0-0.3-0.1c-0.1-0.1-0.1-0.2-0.1-0.3L7.6,59c0-0.1,0-0.1,0-0.2l-0.1-0.3
		c-0.1-0.2-0.1-0.2-0.3-0.2c-0.1,0-0.1,0-0.2,0c-0.3,0.1-0.5,0.2-0.7,0.3C6,58.8,5.8,59,5.6,59.2L5,59.8C4.9,59.9,4.8,60,4.6,60H4.4
		c-0.2,0-0.2-0.2-0.2-0.3c0,0,0-0.1,0-0.2c0.2-0.5,0.4-0.9,0.5-1.3L5,57.6l0.2-0.7c0-0.1,0.1-0.2,0.3-0.3h0.2c0.1,0,0.1,0.1,0.2,0.2
		c0,0.1,0,0.2,0,0.3l-0.1,0.2l-0.1,0.2v0.1c0,0,0,0,0.1,0.1h0.1c0.2,0,0.4-0.1,0.6-0.2c0.2-0.1,0.4-0.2,0.6-0.2c0.1,0,0.3,0,0.5,0.1
		c0.2,0,0.3,0.1,0.5,0.3c0.1,0.1,0.2,0.3,0.3,0.4L8.5,59v0.3v0.2v0.2C8.4,59.9,8.3,59.9,8.1,60L8.1,60z"/>
	<path class="st1" d="M5.8,57.9L5.8,57.9c0.3,0,0.5-0.1,0.7-0.2c0.1-0.1,0.3-0.2,0.5-0.2c0.1,0,0.3,0,0.4,0.1c0.1,0,0.3,0.1,0.4,0.2
		C7.9,57.9,8,58,8.1,58.2l0.1,0.4l0.1,0.5v0.3v0.3v0.1c0,0.1-0.1,0.1-0.2,0.1c-0.1,0-0.2,0-0.3-0.1c-0.1-0.1-0.1-0.2-0.1-0.3
		l-0.1-0.6c0-0.1,0-0.2-0.1-0.3l-0.1-0.3C7.3,58.1,7.2,58,7,58c-0.1,0-0.2,0-0.2,0c-0.3,0.1-0.5,0.2-0.7,0.3
		c-0.3,0.2-0.5,0.4-0.7,0.6l-0.6,0.7c-0.1,0.1-0.2,0.1-0.3,0.1H4.3c-0.1,0-0.2-0.1-0.2-0.2c0,0,0-0.1,0-0.2c0.2-0.5,0.4-0.9,0.5-1.3
		L5,57.6L5.2,57c0-0.1,0.1-0.2,0.3-0.2h0.2c0,0,0.1,0.1,0.1,0.2c0,0.1,0,0.2,0,0.3l-0.1,0.2l-0.1,0.2v0.1
		C5.7,57.8,5.7,57.9,5.8,57.9z"/>
	<path class="st1" d="M9.8,60.2c-0.1,0-0.2,0-0.3-0.1c-0.2-0.2-0.3-0.4-0.3-0.7v-1.1v-0.4v-0.2c0-0.1,0-0.1,0-0.2v-0.2
		c0-0.3,0.2-0.5,0.4-0.6c0.1,0,0.2,0,0.3,0h0.2c0.1,0,0.1,0.2,0.1,0.3l-0.1,0.6v0.2c0,0,0,0.1-0.1,0.3v0.4v0.7v0.2
		c0.1,0,0.3-0.1,0.7-0.5l0.4-0.4l0.3-0.3l0.4-0.5l0.2-0.2l0.2-0.3l0.2-0.3c0.1-0.1,0.2-0.2,0.4-0.2c0.1,0,0.2,0.1,0.3,0.2v0.2
		c0,0.1,0,0.1,0,0.2L13,57.5l-0.3,0.4l-0.3,0.3l-0.3,0.3L12,58.6c-0.1,0.1-0.3,0.3-0.4,0.4c-0.1,0.1-0.3,0.3-0.4,0.4
		c-0.3,0.2-0.6,0.5-0.9,0.7c-0.1,0.1-0.2,0.1-0.4,0.1H9.8L9.8,60.2L9.8,60.2z"/>
	<path class="st1" d="M13.1,57.1l-0.3,0.4l-0.3,0.3l-0.3,0.3l-0.3,0.3c-0.1,0.1-0.3,0.3-0.4,0.4c-0.1,0.1-0.3,0.3-0.4,0.4
		c-0.3,0.2-0.6,0.5-0.9,0.7C10.1,60,10,60,9.9,60H9.8c-0.1,0-0.2,0-0.2-0.1c-0.2-0.2-0.3-0.4-0.3-0.7v-1.1v-0.4v-0.2
		c0-0.1,0-0.1,0-0.2c0-0.1,0-0.2,0-0.2c0-0.3,0.2-0.5,0.4-0.6c0.1,0,0.1,0,0.2,0h0.2c0.1,0,0.1,0.1,0.1,0.2l-0.1,0.5v0.2
		c0,0.1,0,0.1,0,0.3v0.4V59v0.2c0,0.1,0,0.1,0.1,0.1c0.2,0,0.4-0.2,0.7-0.5l0.4-0.4l0.3-0.3l0.4-0.5l0.2-0.2l0.2-0.3l0.2-0.3
		c0.1-0.1,0.2-0.1,0.3-0.1s0.2,0.1,0.3,0.1v0.1V57L13.1,57.1z"/>
	<path class="st1" d="M13.7,60.1c-0.2,0-0.3-0.1-0.5-0.2c-0.2-0.1-0.3-0.2-0.3-0.4l-0.1-0.2v-0.2c0-0.1,0-0.2,0-0.2
		c0-0.1,0-0.1,0.1-0.2c0.1-0.4,0.4-0.7,0.7-1s0.7-0.6,1.1-0.8l0.4-0.2l0.3-0.1h0.2c0.2,0,0.5,0,0.7,0.1s0.3,0.2,0.3,0.4v0.2
		c-0.1,0.2-0.2,0.4-0.3,0.5L16,58.1l-0.2,0.2c-0.3,0.2-0.6,0.4-1,0.6c-0.3,0.1-0.7,0.2-1,0.2c0,0-0.1,0.1-0.1,0.2v0.1
		c0,0.1,0.1,0.1,0.1,0.1c0.1,0,0.1,0,0.2,0h0.2h0.1h0.1h0.1c0.2,0,0.3-0.1,0.5-0.2l0.2-0.1l0.2-0.1h0.1c0.1,0,0.2,0,0.2,0.1v0.1
		c0,0.1-0.1,0.2-0.2,0.3c-0.5,0.3-1.1,0.5-1.7,0.5C13.8,60.1,13.7,60.1,13.7,60.1z M15.2,57.5L15.2,57.5c-0.2,0.1-0.2,0.1-0.3,0.2
		c-0.1,0-0.1,0.1-0.2,0.2c-0.1,0.1-0.2,0.2-0.3,0.4h0.1c0.3-0.1,0.7-0.3,1-0.5l0.2-0.2l0,0l0,0h-0.1L15.2,57.5z"/>
	<path class="st1" d="M15.7,58.2c-0.3,0.2-0.6,0.4-1,0.6c-0.3,0.1-0.7,0.2-1,0.2c-0.1,0.1-0.1,0.1-0.1,0.2c0,0.1,0,0.1,0,0.1
		c0,0.1,0.1,0.1,0.2,0.2c0.1,0,0.2,0.1,0.3,0.1h0.1c0,0,0,0,0.1,0h0.1h0.1h0.1c0.2,0,0.3-0.1,0.5-0.2l0.2-0.1l0.2-0.1
		c0.1,0,0.2,0,0.2,0.1v0.1c0,0.1,0,0.1-0.1,0.2c-0.5,0.3-1.1,0.5-1.7,0.5h-0.3c-0.1,0-0.3-0.1-0.5-0.2c-0.1-0.1-0.3-0.2-0.3-0.4
		l-0.1-0.2v-0.2c0-0.1,0-0.2,0-0.2c0-0.1,0-0.1,0.1-0.2c0.1-0.4,0.3-0.7,0.7-1c0.3-0.3,0.7-0.6,1-0.8l0.4-0.2l0.3-0.1h0.2
		c0.2,0,0.4,0,0.7,0.1c0.1,0.1,0.2,0.2,0.2,0.4v0.2c-0.1,0.2-0.2,0.3-0.3,0.5L15.8,58L15.7,58.2L15.7,58.2z M15.4,57.7L15.4,57.7
		L15.4,57.7l0.2-0.3c0,0,0-0.1,0.1-0.1c0,0-0.1-0.1-0.2-0.1l-0.2,0.1h-0.1h-0.1c-0.1,0-0.1,0.1-0.2,0.1c-0.1,0-0.1,0.1-0.2,0.2
		c-0.1,0.1-0.2,0.2-0.3,0.4c0,0.1,0,0.1,0,0.1h0.1C14.8,58.1,15.1,57.9,15.4,57.7z"/>
	<path class="st1" d="M20.3,60c-0.1,0-0.2,0-0.3-0.1c-0.1-0.1-0.1-0.2-0.1-0.3L19.8,59c0-0.1,0-0.2,0-0.2l-0.1-0.3
		c-0.1-0.2-0.1-0.2-0.3-0.2c-0.1,0-0.1,0-0.2,0c-0.3,0.1-0.5,0.2-0.7,0.3c-0.3,0.2-0.5,0.4-0.7,0.6l-0.6,0.7c0,0-0.2,0.1-0.3,0.1
		h-0.2c-0.2,0-0.2-0.2-0.2-0.3c0,0,0-0.1,0-0.2c0.2-0.5,0.4-0.9,0.5-1.3l0.2-0.6l0.2-0.7c0-0.1,0.1-0.2,0.3-0.3h0.2
		c0.1,0,0.2,0.1,0.2,0.2c0,0.1,0,0.2,0,0.3L18,57.3v0.3v0.1c0,0,0,0.1,0.1,0.1h0.1c0.2,0,0.4-0.1,0.6-0.2c0.2-0.1,0.4-0.2,0.6-0.2
		c0.1,0,0.3,0,0.5,0.1c0.2,0,0.3,0.1,0.5,0.3c0.1,0.1,0.2,0.3,0.3,0.4l0.1,0.9v0.3v0.2v0.2C20.6,59.9,20.6,59.9,20.3,60L20.3,60z"/>
	<path class="st1" d="M18.1,57.9L18.1,57.9c0.3,0,0.5-0.1,0.8-0.2c0.1-0.1,0.3-0.2,0.5-0.2c0.1,0,0.3,0,0.4,0.1
		c0.1,0,0.3,0.1,0.4,0.2c0.1,0.1,0.2,0.2,0.3,0.4l0.1,0.4l0.1,0.5v0.3v0.3v0.1c0,0.1-0.1,0.1-0.2,0.1s-0.2,0-0.3-0.1
		C20,59.7,20,59.6,20,59.5l-0.1-0.6c0-0.1,0-0.2-0.1-0.3l-0.1-0.3c-0.1-0.2-0.2-0.3-0.4-0.3c-0.1,0-0.2,0-0.2,0
		c-0.3,0.1-0.5,0.2-0.7,0.3c-0.3,0.2-0.5,0.4-0.7,0.6l-0.6,0.7c-0.1,0.1-0.2,0.1-0.3,0.1h-0.2c-0.1,0-0.2-0.1-0.2-0.2
		c0,0,0-0.1,0-0.2c0.2-0.5,0.4-0.9,0.5-1.3l0.2-0.6l0.2-0.7c0-0.1,0.1-0.2,0.3-0.2h0.2c0.1,0,0.1,0.1,0.1,0.2c0,0.1,0,0.2,0,0.3
		l0.1,0.5v0.1v0.1C17.9,57.8,18,57.9,18.1,57.9z"/>
	<path class="st1" d="M22.5,60c-0.5,0-0.8-0.3-1-0.8c0-0.1,0-0.1,0-0.2v-0.1c0-0.2,0-0.3,0-0.5c0-0.1,0.1-0.3,0.1-0.5
		c0.1-0.4,0.3-0.7,0.4-1c-0.1,0-0.2,0-0.4,0.1L21,57.1h-0.1h-0.2c-0.1,0-0.2-0.1-0.2-0.2v-0.1c0-0.1,0-0.1,0-0.2c0,0,0-0.1,0.1-0.2
		c0.1-0.2,0.5-0.3,1-0.4l0.6-0.1l0.3-0.1l0,0l0.1-0.2L23,55c0.2-0.2,0.3-0.5,0.5-0.7c0.1-0.1,0.1-0.2,0.2-0.2
		c0.1-0.1,0.2-0.2,0.3-0.3c0.1-0.1,0.2-0.1,0.3-0.1c0.1,0,0.1,0,0.2,0c0.1,0.1,0.1,0.1,0.2,0.2c0,0.2,0,0.3-0.1,0.5
		c-0.1,0.1-0.1,0.2-0.2,0.3l-0.2,0.2L24,55.3l-0.3,0.4l-0.1,0.2l0,0l0.4-0.1h0.2h0.3c0.1,0.1,0.2,0.2,0.2,0.3s-0.1,0.2-0.2,0.3
		l-0.3,0.1l-1,0.2c0,0-0.1,0.1-0.1,0.2L23,57l0,0c-0.1,0.1-0.2,0.3-0.3,0.5c-0.1,0.2-0.2,0.5-0.2,0.7c0,0.1,0,0.2-0.1,0.3
		c0,0.1,0,0.2,0,0.3V59c0,0.2,0.1,0.3,0.2,0.4h0.1c0.2,0,0.3,0,0.5-0.1c0.1-0.1,0.2-0.2,0.3-0.2c0.1-0.1,0.2-0.1,0.2-0.2
		c0.1-0.1,0.1-0.1,0.2-0.1s0.1,0,0.2,0.1s0.1,0.1,0,0.2c-0.1,0.2-0.1,0.3-0.3,0.4l-0.4,0.3C23.2,59.9,22.8,60,22.5,60z"/>
	<path class="st1" d="M24.3,54.8L24.1,55L24,55.3l-0.1,0.2l-0.1,0.2l-0.1,0.2L23.6,56l0,0l0.5-0.1h0.2h0.2c0.1,0.1,0.1,0.2,0.1,0.2
		c0,0.1-0.1,0.1-0.2,0.2l-0.3,0.1l-0.5,0.1l-0.5,0.1c-0.1,0-0.1,0.1-0.2,0.2l0.1,0.1V57c-0.1,0.1-0.2,0.3-0.3,0.5
		c-0.1,0.2-0.2,0.5-0.2,0.7c0,0.1,0,0.2-0.1,0.3c0,0.1,0,0.2,0,0.3V59c0,0.2,0.1,0.4,0.3,0.5h0.2c0.2,0,0.3,0,0.5-0.1
		c0.1-0.1,0.2-0.2,0.3-0.2c0.1-0.1,0.2-0.1,0.2-0.2c0.1-0.1,0.1-0.1,0.1-0.1s0.1,0,0.1,0.1c0,0,0,0.1,0,0.2c0,0.1-0.1,0.3-0.3,0.4
		l-0.4,0.3c-0.3,0.2-0.7,0.4-1,0.4c-0.5,0-0.8-0.2-0.9-0.7c0-0.1,0-0.1,0-0.2v-0.1c0-0.2,0-0.3,0-0.4c0-0.1,0.1-0.3,0.1-0.5
		c0.1-0.4,0.3-0.8,0.4-1.1c0,0-0.2,0-0.5,0.1l-0.6,0.1h-0.1h-0.2c-0.1,0-0.1-0.1-0.2-0.2v-0.1c0-0.1,0-0.1,0-0.1s0-0.1,0.1-0.2
		c0.1-0.1,0.4-0.3,0.9-0.3l0.6-0.1l0.3-0.1l0.1-0.1l0.1-0.2l0.4-0.6c0.2-0.2,0.3-0.5,0.5-0.7c0.1-0.1,0.1-0.2,0.2-0.2
		c0.1-0.1,0.2-0.2,0.3-0.3c0.1-0.1,0.2-0.1,0.3-0.1c0.1,0,0.1,0,0.2,0s0.1,0.1,0.1,0.1c0,0.2,0,0.3-0.1,0.4
		C24.4,54.6,24.4,54.7,24.3,54.8z"/>
	<path class="st1" d="M24.8,60.1c-0.1,0-0.1,0-0.2-0.1s-0.2-0.2-0.2-0.4v-0.4c0.1-0.4,0.2-0.8,0.3-1.2c0.1-0.4,0.3-0.7,0.4-1.1
		c0-0.1,0.1-0.1,0.1-0.2c0-0.1,0.1-0.2,0.1-0.2c0.1-0.1,0.2-0.2,0.3-0.2l0,0c0.2,0,0.3,0.1,0.4,0.2c0.1,0.1,0.1,0.2,0.2,0.3v0.1
		c0,0.1,0,0.1,0,0.2L26,57.4l-0.2,0.3c-0.1,0.2-0.2,0.3-0.3,0.6c-0.1,0.2-0.2,0.5-0.3,0.8L25,59.9C25,60,25,60.1,24.8,60.1
		L24.8,60.1z M27,55.5c-0.1,0-0.3,0-0.3-0.1c-0.1-0.1-0.1-0.2-0.1-0.4v-0.2c0-0.1,0-0.2,0.1-0.3s0.2-0.2,0.3-0.2
		c0.1,0,0.2,0,0.3,0.1c0.1,0.1,0.1,0.2,0.2,0.3v0.2c0,0.1,0,0.3-0.1,0.4C27.2,55.4,27.1,55.5,27,55.5L27,55.5z"/>
	<path class="st1" d="M26.2,57L26,57.3l-0.2,0.3c-0.1,0.2-0.2,0.4-0.3,0.6c-0.1,0.2-0.2,0.5-0.3,0.8l-0.1,0.4L25,59.8
		c0,0.1-0.1,0.2-0.2,0.2s-0.1,0-0.2,0c-0.1-0.1-0.1-0.2-0.1-0.4v-0.4c0.1-0.4,0.2-0.8,0.3-1.2c0.1-0.4,0.3-0.7,0.4-1
		c0-0.1,0.1-0.1,0.1-0.2c0-0.1,0.1-0.2,0.1-0.2c0.1-0.1,0.2-0.2,0.3-0.2c0.1,0,0.3,0.1,0.4,0.2c0,0.1,0.1,0.2,0.1,0.3L26.2,57
		C26.3,57,26.3,57,26.2,57L26.2,57z M27.2,55.3L27.2,55.3c0,0.1-0.1,0.1-0.3,0.2c-0.1,0-0.2,0-0.3-0.1c-0.1-0.1-0.1-0.2-0.1-0.3
		v-0.2c0-0.1,0-0.2,0.1-0.3s0.2-0.2,0.3-0.2c0.1,0,0.2,0,0.3,0.1c0.1,0.1,0.1,0.2,0.1,0.3V55C27.3,55.1,27.3,55.2,27.2,55.3z"/>
	<path class="st1" d="M30.1,60c-0.1,0-0.2,0-0.3-0.1c-0.1-0.1-0.1-0.2-0.1-0.3L29.6,59c0-0.1,0-0.1,0-0.2l-0.1-0.3
		c-0.1-0.2-0.1-0.2-0.3-0.2c-0.1,0-0.1,0-0.2,0c-0.3,0.1-0.5,0.2-0.7,0.3c-0.3,0.2-0.5,0.4-0.7,0.6L27,59.8
		c-0.1,0.1-0.2,0.2-0.3,0.2h-0.2c-0.2,0-0.2-0.2-0.2-0.3c0,0,0-0.1,0-0.2c0.2-0.5,0.4-0.9,0.5-1.3l0.2-0.6l0.2-0.7
		c0-0.1,0.1-0.2,0.3-0.3h0.2c0.1,0,0.1,0.1,0.2,0.2c0,0.1,0,0.2,0,0.3l-0.1,0.2l-0.1,0.2v0.1c0,0,0,0,0.1,0.1h0.1
		c0.2,0,0.4-0.1,0.6-0.2c0.2-0.1,0.4-0.2,0.6-0.2c0.1,0,0.3,0,0.5,0.1c0.2,0,0.3,0.1,0.5,0.3c0.1,0.1,0.2,0.3,0.3,0.4l0.1,0.9v0.3
		v0.2v0.2C30.4,59.9,30.3,59.9,30.1,60L30.1,60z"/>
	<path class="st1" d="M27.8,57.9L27.8,57.9c0.3,0,0.5-0.1,0.8-0.2c0.1-0.1,0.3-0.2,0.5-0.2c0.1,0,0.3,0,0.4,0.1
		c0.1,0,0.3,0.1,0.4,0.2c0.1,0.1,0.2,0.2,0.3,0.4l0.1,0.4l0.1,0.5v0.3v0.3v0.1c0,0.1-0.1,0.1-0.2,0.1s-0.2,0-0.3-0.1
		c-0.1-0.1-0.1-0.2-0.1-0.3l-0.1-0.6c0-0.1,0-0.2-0.1-0.3l-0.1-0.3c-0.1-0.2-0.2-0.3-0.4-0.3c-0.1,0-0.2,0-0.2,0
		c-0.3,0.1-0.5,0.2-0.7,0.3c-0.3,0.2-0.5,0.4-0.7,0.6l-0.6,0.7c-0.1,0.1-0.2,0.1-0.3,0.1h-0.2c-0.1,0-0.2-0.1-0.2-0.2
		c0,0,0-0.1,0-0.2c0.2-0.5,0.4-0.9,0.5-1.3l0.2-0.6l0.2-0.7c0-0.1,0.1-0.2,0.3-0.2h0.2c0,0,0.1,0.1,0.1,0.2c0,0.1,0,0.2,0,0.3
		l-0.1,0.2l-0.1,0.2v0.1C27.7,57.8,27.7,57.9,27.8,57.9z"/>
	<path class="st1" d="M30.8,63.7c-0.2,0-0.4,0-0.6-0.1C30,63.5,30,63.4,30,63.3v-0.1c0-0.2,0.1-0.2,0.2-0.2h0.2h0.2h0.1
		c0.1,0,0.2,0,0.3,0c0.1,0,0.2,0,0.3-0.1c0.3-0.1,0.6-0.4,0.9-0.8c0.3-0.4,0.5-0.8,0.7-1.2l0.3-0.6l0.2-0.6l0.1-0.3l-0.1,0.1
		l-0.2,0.1c-0.3,0.2-0.7,0.4-1.1,0.4h-0.2c-0.1,0-0.3,0-0.4-0.1c-0.2-0.1-0.3-0.2-0.4-0.4v-0.3V59c0.1-0.4,0.3-0.8,0.6-1.1
		s0.6-0.5,0.9-0.8c0.2-0.1,0.4-0.2,0.7-0.3h0.2h0.2c0,0,0.1,0,0.2,0c0.1,0,0.1,0,0.2,0h0.1c0.1,0,0.1-0.1,0.2-0.1
		c0.2,0,0.3,0.1,0.4,0.3l0.1,0.2c0,0.1,0,0.1,0,0.2c0,0.3-0.1,0.6-0.2,1c-0.1,0.4-0.2,0.7-0.3,1.1L34.1,60v0.1c0,0.1,0,0.1-0.1,0.1
		v0.3L33.8,61l-0.2,0.4c-0.2,0.4-0.4,0.8-0.8,1.2c-0.3,0.4-0.7,0.7-1.1,0.9c-0.2,0.1-0.5,0.1-0.8,0.2l0,0L30.8,63.7L30.8,63.7z
		 M33.3,57.6c-0.3,0.1-0.6,0.2-0.8,0.5l-0.3,0.4L32,58.7l-0.1,0.2v0.2c0,0.1,0,0.1,0.1,0.1c0.1,0,0.3-0.1,0.4-0.1l0.4-0.2
		c0.1-0.1,0.2-0.2,0.5-0.4c0.3-0.3,0.4-0.5,0.4-0.7v-0.1l-0.1-0.1L33.3,57.6z"/>
	<path class="st1" d="M33.5,61.3c-0.2,0.4-0.4,0.8-0.8,1.2c-0.3,0.4-0.7,0.7-1.1,0.9c-0.2,0.1-0.4,0.1-0.7,0.2h-0.2
		c-0.2,0-0.4,0-0.6-0.1C30,63.4,30,63.4,30,63.3v-0.1c0-0.1,0.1-0.2,0.2-0.2h0.2h0.1h0.1h0.1c0.1,0,0.2,0,0.3,0
		c0.1,0,0.2-0.1,0.3-0.1c0.3-0.1,0.6-0.4,0.9-0.8c0.3-0.4,0.5-0.8,0.7-1.2l0.3-0.6l0.2-0.6l0.1-0.3l0.1-0.2l-0.2,0.2l-0.2,0.1
		c-0.3,0.2-0.7,0.4-1.1,0.4h-0.2c-0.1,0-0.3,0-0.4-0.1c-0.2-0.1-0.3-0.2-0.3-0.3v-0.3V59c0.1-0.4,0.3-0.7,0.6-1
		c0.3-0.3,0.6-0.5,0.9-0.8c0.2-0.1,0.4-0.2,0.7-0.3h0.2h0.2h0.1c0.1,0,0.1,0,0.2,0c0.1,0,0.1,0,0.2,0c0,0,0.1-0.1,0.2-0.1
		c0.1,0,0.2,0.1,0.3,0.3l0.1,0.2c0,0,0,0.1,0,0.2c0,0.3-0.1,0.6-0.2,1c-0.1,0.4-0.2,0.7-0.3,1.1L34.1,60v0.1c0,0.1,0,0.1-0.1,0.1
		l-0.1,0.3L33.7,61L33.5,61.3L33.5,61.3z M32.5,59.2L32.5,59.2l0.4-0.2c0.1-0.1,0.3-0.2,0.5-0.4c0.3-0.3,0.4-0.5,0.4-0.8v-0.1
		c0-0.1-0.1-0.1-0.2-0.1h-0.3c-0.3,0.1-0.6,0.2-0.9,0.5l-0.3,0.4L32,58.7l-0.1,0.2v0.2c0,0.1,0.1,0.2,0.2,0.2
		C32.2,59.3,32.4,59.2,32.5,59.2z"/>
	<path class="st1" d="M38.8,60.6c-0.1,0-0.2-0.1-0.3-0.2c-0.1-0.1-0.1-0.2-0.1-0.3c0.1-0.5,0.3-1,0.5-1.5l0.3-0.7l0.3-0.6
		c-0.1,0-0.3,0.1-0.5,0.1s-0.3,0.1-0.4,0.1h-0.2c-0.1,0-0.2-0.1-0.3-0.2c0-0.2,0-0.3,0.1-0.4l0.4-0.1l0.4-0.1l0.4-0.1l0.5-0.1
		l0.2-0.4l0.2-0.4l0.2-0.4l0.2-0.4c0.2-0.2,0.3-0.4,0.4-0.5c0.1,0,0.1-0.1,0.2-0.1h0.3c0.2,0,0.3,0.1,0.5,0.2
		c0.1,0.1,0.2,0.3,0.3,0.4c0,0.2,0,0.3-0.2,0.3h-0.1c-0.1,0-0.2,0-0.2-0.1C41.8,55,41.8,55,41.7,55l0,0c-0.1,0-0.1,0-0.2,0.1
		c-0.2,0.2-0.3,0.4-0.4,0.6L40.9,56l-0.1,0.3H41h0.5c0.1,0,0.2,0,0.2,0.1c0.1,0,0.1,0.1,0.1,0.1v0.2c0,0.1-0.1,0.1-0.2,0.2
		c-0.2,0-0.4,0.1-0.6,0.1l-0.7,0.1c-0.2,0.5-0.4,1-0.6,1.5c-0.1,0.3-0.2,0.5-0.3,0.8s-0.2,0.5-0.3,0.8C39.1,60.5,39,60.6,38.8,60.6
		L38.8,60.6z"/>
	<path class="st1" d="M41.2,56.6h0.3c0.1,0,0.2,0,0.2,0l0.1,0.1v0.1c0,0.1-0.1,0.1-0.2,0.1c-0.2,0-0.4,0.1-0.6,0.1h-0.3h-0.3
		c-0.2,0.5-0.5,1-0.6,1.6c-0.1,0.3-0.2,0.5-0.3,0.8s-0.2,0.5-0.3,0.8c-0.1,0.1-0.2,0.2-0.3,0.2s-0.2-0.1-0.3-0.2
		c-0.1-0.1-0.1-0.2-0.1-0.3c0.1-0.5,0.3-0.9,0.5-1.4l0.3-0.7l0.3-0.7c-0.1,0-0.3,0.1-0.6,0.1c-0.1,0-0.3,0.1-0.4,0.1h-0.2
		c-0.1,0-0.1-0.1-0.2-0.2c0-0.1,0-0.2,0.1-0.3l0.4-0.1l0.4-0.1l0.4-0.1l0.5-0.1l0.2-0.4l0.2-0.4l0.2-0.4l0.2-0.4
		c0.1-0.2,0.3-0.3,0.4-0.5c0.1,0,0.1-0.1,0.2-0.1h0.3c0.1,0,0.3,0.1,0.4,0.2c0.1,0.1,0.2,0.2,0.2,0.4c0,0.1,0,0.2-0.1,0.2h-0.1
		c-0.1,0-0.1,0-0.2-0.1c-0.1-0.1-0.1-0.1-0.2-0.1c-0.1,0-0.2,0-0.3,0.1c-0.2,0.2-0.3,0.4-0.4,0.6l-0.2,0.3l-0.2,0.4H41L41.2,56.6z"
		/>
	<path class="st1" d="M45.5,60.1c-0.1,0-0.1-0.1-0.2-0.1c-0.1-0.1-0.2-0.3-0.2-0.6v-0.3v-0.8c0-0.1,0-0.1,0-0.2l0,0
		c-0.3,0.3-0.6,0.6-0.9,0.8c-0.4,0.4-0.7,0.6-0.9,0.8C43,60,42.7,60,42.5,60h-0.2h-0.2c-0.2,0-0.3-0.2-0.4-0.3
		c-0.1-0.1-0.1-0.1-0.1-0.2c0-0.1-0.1-0.2-0.1-0.3c0-0.2,0-0.4,0-0.6c0-0.1,0.1-0.3,0.1-0.5c0.1-0.2,0.1-0.4,0.2-0.5
		c0.1-0.1,0.2-0.3,0.2-0.4c0.1-0.2,0.3-0.3,0.5-0.3h0.1c0.2,0.1,0.3,0.2,0.3,0.3s0,0.2,0,0.2l0.1,0.2l-0.2,0.3l-0.2,0.3
		c-0.1,0.2-0.1,0.4-0.2,0.6c0,0.1,0.1,0.2,0.1,0.2c0.1,0,0.1,0,0.2,0h0.1c0.2-0.1,0.3-0.3,0.5-0.4c0.1-0.2,0.3-0.4,0.5-0.5
		c0.3-0.3,0.5-0.5,0.6-0.6c0.2-0.2,0.4-0.4,0.7-0.6c0.1,0,0.2-0.1,0.3-0.1s0.3,0.1,0.4,0.2c0.1,0.1,0.2,0.2,0.2,0.4v0.1l-0.1,0.3V58
		v0.2v0.7v1c0,0.1-0.1,0.2-0.2,0.2L45.5,60.1L45.5,60.1L45.5,60.1z"/>
	<path class="st1" d="M45.8,58v0.3V59v1c0,0.1,0,0.1-0.1,0.2h-0.1h-0.1c-0.1,0-0.1-0.1-0.2-0.1c-0.1-0.1-0.2-0.3-0.2-0.5v-0.3v-0.8
		c0-0.1,0-0.1,0-0.2c0,0,0-0.1-0.1-0.1h-0.1c-0.4,0.3-0.7,0.6-0.9,0.8c-0.4,0.4-0.7,0.6-0.9,0.8C43,59.9,42.7,60,42.5,60h-0.2h-0.2
		c-0.2,0-0.3-0.1-0.4-0.3c-0.1-0.1-0.1-0.1-0.1-0.2c0-0.1,0-0.2,0-0.3c0-0.2,0-0.4,0-0.6c0-0.1,0.1-0.3,0.1-0.5
		c0.1-0.2,0.1-0.3,0.2-0.5c0.1-0.1,0.1-0.3,0.2-0.4c0.1-0.2,0.3-0.2,0.4-0.2h0.1c0.1,0,0.2,0.1,0.3,0.3c0,0.1,0,0.1,0,0.2l-0.1,0.1
		l-0.2,0.3l-0.2,0.3c-0.1,0.2-0.2,0.4-0.2,0.6c0,0.1,0.1,0.2,0.2,0.3c0.1,0,0.1,0,0.2,0h0.1c0.2-0.1,0.4-0.3,0.5-0.5
		s0.3-0.4,0.5-0.5c0.3-0.3,0.5-0.5,0.6-0.6c0.2-0.2,0.4-0.4,0.7-0.6c0.1,0,0.1,0,0.2,0c0.1,0,0.3,0,0.4,0.1c0.1,0.1,0.1,0.2,0.1,0.3
		v0.1v0.3L45.8,58z"/>
	<path class="st1" d="M48.2,60c-0.5,0-0.8-0.3-1-0.8c0-0.1,0-0.1,0-0.2v-0.1c0-0.2,0-0.3,0-0.5c0-0.1,0.1-0.3,0.1-0.5
		c0.1-0.4,0.3-0.7,0.4-1c-0.1,0-0.2,0-0.4,0.1l-0.6,0.1h-0.1h-0.2c-0.1,0-0.2-0.1-0.2-0.2v-0.1c0-0.1,0-0.1,0-0.2c0,0,0-0.1,0.1-0.2
		c0.1-0.2,0.5-0.3,1-0.4l0.6-0.1l0.3-0.1l0,0l0.1-0.2l0.4-0.6c0.2-0.2,0.3-0.5,0.5-0.7c0.1-0.1,0.1-0.2,0.2-0.2
		c0.1-0.1,0.2-0.2,0.3-0.3s0.2-0.1,0.3-0.1s0.1,0,0.2,0c0.1,0.1,0.1,0.1,0.2,0.2c0,0.2,0,0.3-0.1,0.5c-0.1,0.1-0.1,0.2-0.2,0.3
		l-0.2,0.2l-0.1,0.2l-0.3,0.4l-0.1,0.2l0,0l0.4-0.1H50h0.3c0.1,0.1,0.1,0.2,0.2,0.3c0,0.1-0.1,0.2-0.2,0.3L50,56.3l-1,0.2
		c0,0-0.1,0.1-0.1,0.2l-0.1,0.1L48.7,57c-0.1,0.1-0.1,0.2-0.3,0.5c-0.1,0.2-0.2,0.5-0.2,0.7c0,0.1,0,0.2-0.1,0.3c0,0.1,0,0.2,0,0.3
		V59c0,0.2,0.1,0.3,0.2,0.4h0.1c0.2,0,0.3,0,0.5-0.1c0.1-0.1,0.2-0.2,0.3-0.2c0.1-0.1,0.2-0.1,0.2-0.2c0.1-0.1,0.1-0.1,0.2-0.1
		c0,0,0.1,0,0.2,0.1c0.1,0.1,0.1,0.1,0,0.2c-0.1,0.2-0.1,0.3-0.3,0.4l-0.4,0.3C48.9,59.9,48.6,60,48.2,60z"/>
	<path class="st1" d="M50,54.8L49.8,55l-0.1,0.2l-0.1,0.2l-0.1,0.2l-0.1,0.2l-0.1,0.1l0,0l0.5-0.1H50h0.2c0.1,0.1,0.1,0.2,0.1,0.2
		c0,0.1-0.1,0.1-0.2,0.2l-0.3,0.1l-0.5,0.1L49,56.6c-0.1,0-0.1,0.1-0.2,0.2l-0.1,0.1V57c-0.1,0.1-0.2,0.3-0.3,0.5s-0.2,0.5-0.2,0.7
		c0,0.1,0,0.2-0.1,0.3c0,0.1,0,0.2,0,0.3V59c0,0.2,0.1,0.4,0.3,0.5h0.2c0.2,0,0.3,0,0.5-0.1c0.1-0.1,0.2-0.2,0.3-0.2
		c0.1-0.1,0.2-0.1,0.2-0.2c0.1-0.1,0.1-0.1,0.1-0.1s0.1,0,0.1,0.1c0,0,0,0.1,0,0.2c0,0.1-0.1,0.3-0.3,0.4l-0.4,0.3
		c-0.3,0.2-0.7,0.4-1,0.4c-0.5,0-0.8-0.2-0.9-0.7c0-0.1,0-0.1,0-0.2v-0.1c0-0.2,0-0.3,0-0.4c0-0.1,0.1-0.3,0.1-0.5
		c0.1-0.4,0.3-0.8,0.4-1.1c0,0-0.2,0-0.5,0.1l-0.6,0.1h-0.1h-0.2c-0.1,0-0.1-0.1-0.2-0.2v-0.1c0-0.1,0-0.1,0-0.1s0-0.1,0.1-0.2
		c0.1-0.1,0.4-0.3,0.9-0.3l0.6-0.1l0.3-0.1l0.1-0.1l0.1-0.2l0.4-0.6c0.2-0.2,0.3-0.5,0.5-0.7c0.1-0.1,0.1-0.2,0.2-0.2
		c0.1-0.1,0.2-0.2,0.3-0.3C49.9,54,49.9,54,50,54s0.1,0,0.2,0c0.1,0,0.1,0.1,0.1,0.1c0,0.2,0,0.3-0.1,0.4
		C50.2,54.6,50.1,54.7,50,54.8z"/>
	<path class="st1" d="M54.4,60.1c-0.1,0-0.1-0.1-0.2-0.1C54,59.9,54,59.7,54,59.4v-0.3v-0.8c0-0.1,0-0.1,0-0.2l0,0
		c-0.3,0.3-0.6,0.6-0.9,0.8c-0.4,0.4-0.7,0.6-0.9,0.8C51.9,60,51.6,60,51.4,60h-0.2H51c-0.2,0-0.3-0.2-0.4-0.3
		c-0.1-0.1-0.1-0.1-0.1-0.2c0-0.1-0.1-0.2-0.1-0.3c0-0.2,0-0.4,0-0.6c0-0.1,0.1-0.3,0.1-0.5c0.1-0.2,0.1-0.4,0.2-0.5
		c0.1-0.1,0.2-0.3,0.2-0.4c0.1-0.2,0.3-0.3,0.5-0.3h0.1c0.2,0.1,0.3,0.2,0.3,0.3s0,0.2,0,0.2l-0.1,0.1l-0.2,0.3l-0.2,0.3
		c-0.1,0.2-0.1,0.4-0.2,0.6c0,0.1,0.1,0.2,0.1,0.2c0.1,0,0.1,0,0.2,0h0.1c0.2-0.1,0.3-0.3,0.5-0.4c0.2-0.2,0.3-0.4,0.5-0.5
		c0.3-0.3,0.5-0.5,0.6-0.6c0.2-0.2,0.4-0.4,0.7-0.6c0.1,0,0.2-0.1,0.3-0.1s0.3,0.1,0.4,0.2c0.1,0.1,0.2,0.2,0.2,0.4v0.1v0.3v0.2v0.2
		v0.7v1C54.7,59.9,54.6,60,54.4,60.1L54.4,60.1L54.4,60.1L54.4,60.1z"/>
	<path class="st1" d="M54.7,58v0.3V59v1c0,0.1,0,0.1-0.1,0.2h-0.1h-0.1c-0.1,0-0.1-0.1-0.2-0.1C54.1,60,54,59.8,54,59.6v-0.3v-0.8
		c0-0.1,0-0.1,0-0.2c0,0,0-0.1-0.1-0.1h-0.1c-0.4,0.3-0.7,0.6-0.9,0.8c-0.4,0.4-0.7,0.6-0.9,0.8S51.6,60,51.3,60h-0.2h-0.2
		c-0.2,0-0.3-0.1-0.4-0.3c-0.1-0.1-0.1-0.1-0.1-0.2c0-0.1,0-0.2,0-0.3c0-0.2,0-0.4,0-0.6c0-0.1,0.1-0.3,0.1-0.5
		c0.1-0.2,0.1-0.3,0.2-0.5c0.1-0.1,0.1-0.3,0.2-0.4C51,57,51.1,57,51.3,57h0.1c0.1,0,0.2,0.1,0.3,0.3c0,0.1,0,0.1,0,0.2l-0.1,0.1
		l-0.2,0.3l-0.2,0.3c-0.1,0.2-0.2,0.4-0.2,0.6c0,0.1,0.1,0.2,0.2,0.3c0.1,0,0.1,0,0.2,0h0.1c0.2-0.1,0.4-0.3,0.5-0.5
		s0.3-0.4,0.5-0.5c0.3-0.3,0.5-0.5,0.6-0.6c0.2-0.2,0.4-0.4,0.7-0.6c0.1,0,0.2,0,0.2,0c0.1,0,0.3,0,0.4,0.1c0.1,0.1,0.1,0.2,0.1,0.3
		v0.1v0.3L54.7,58z"/>
	<path class="st1" d="M55.7,60C55.6,60,55.6,60,55.7,60l-0.2-0.2v-0.2v-0.2l0.1-0.3l0.3-0.9c0-0.1,0.1-0.3,0.1-0.4
		c0.1-0.2,0.1-0.4,0.1-0.5s0.1-0.2,0.1-0.4c0-0.1,0.1-0.3,0.2-0.4c0.1-0.1,0.2-0.1,0.3-0.1h0.1c0.1,0,0.2,0,0.3,0.1s0.1,0.2,0.1,0.4
		l-0.1,0.3v0.1c0.1,0,0.2-0.1,0.4-0.2c0.3-0.2,0.5-0.2,0.6-0.3l0.3-0.1l0.2-0.1h0.3h0.3c0.1,0,0.1,0.1,0.1,0.1v0.2
		c0,0.1-0.1,0.2-0.1,0.3c-0.2,0.1-0.4,0.1-0.6,0.2c-0.2,0-0.3,0.1-0.5,0.2l-0.5,0.3c-0.2,0.1-0.3,0.2-0.4,0.4L57,58.8l-0.3,0.3
		c-0.2,0.2-0.3,0.5-0.5,0.7c-0.1,0.1-0.1,0.1-0.3,0.2H55.7z"/>
	<path class="st1" d="M57.1,57.5c0,0,0.2-0.1,0.5-0.2c0.3-0.1,0.5-0.2,0.6-0.3l0.3-0.1l0.2-0.1H59h0.3l0.1,0.1v0.2
		c0,0.1-0.1,0.2-0.1,0.2c-0.2,0.1-0.4,0.1-0.6,0.2c-0.2,0-0.4,0.1-0.6,0.2l-0.3,0.2L57.6,58c-0.2,0.1-0.3,0.2-0.4,0.4l-0.3,0.3
		L56.7,59c-0.2,0.2-0.3,0.5-0.5,0.7c0,0.1-0.1,0.1-0.2,0.1h-0.2c-0.1,0-0.1,0-0.1,0l-0.1-0.1v-0.2v-0.2v-0.1l0.1-0.2l0.2-0.4
		l0.2-0.4c0-0.1,0.1-0.3,0.1-0.4c0.1-0.2,0.1-0.4,0.1-0.5s0.1-0.2,0.1-0.4c0-0.1,0.1-0.2,0.2-0.3c0,0,0.1-0.1,0.3-0.1H57
		c0.1,0,0.2,0,0.2,0.1c0.1,0.1,0.1,0.2,0.1,0.3V57v0.2C57.1,57.3,57.1,57.5,57.1,57.5z"/>
	<path class="st1" d="M60,60.1c-0.2,0-0.3-0.1-0.5-0.2c-0.2-0.1-0.3-0.2-0.3-0.4l-0.1-0.2v-0.2c0-0.1,0-0.2,0-0.2
		c0-0.1,0-0.1,0.1-0.2c0.1-0.4,0.4-0.7,0.7-1s0.7-0.6,1.1-0.8l0.4-0.2l0.3-0.1h0.2c0.2,0,0.5,0,0.7,0.1s0.3,0.2,0.3,0.4v0.2
		c-0.1,0.2-0.2,0.4-0.3,0.5L62.4,58l-0.2,0.2c-0.3,0.2-0.6,0.4-1,0.6c-0.3,0.1-0.7,0.2-1,0.2c0,0-0.1,0.1-0.1,0.2v0.1
		c0,0.1,0.1,0.1,0.1,0.1c0.1,0,0.1,0,0.2,0h0.2h0.1h0.1h0.1c0.2,0,0.3-0.1,0.5-0.2l0.2-0.1l0.2-0.1h0.1c0.1,0,0.2,0,0.2,0.1v0.1
		c0,0.1-0.1,0.2-0.2,0.3c-0.5,0.3-1.1,0.5-1.7,0.5C60.3,60.1,60,60.1,60,60.1z M61.6,57.4L61.6,57.4h-0.2c-0.1,0-0.1,0.1-0.2,0.1
		c-0.1,0-0.1,0.1-0.2,0.2c-0.1,0.1-0.2,0.2-0.3,0.4h0.1c0.3-0.1,0.7-0.3,1-0.5l0.2-0.2l0,0l0,0h-0.1H61.6z"/>
	<path class="st1" d="M62.1,58.2c-0.3,0.2-0.6,0.4-1,0.6c-0.3,0.1-0.7,0.2-1,0.2C60,59.1,60,59.1,60,59.2c0,0.1,0,0.1,0,0.1
		c0,0.1,0.1,0.1,0.2,0.2c0.1,0,0.2,0.1,0.3,0.1h0.1c0,0,0,0,0.1,0h0.1h0.1H61c0.2,0,0.3-0.1,0.5-0.2l0.2-0.1l0.2-0.1
		c0.1,0,0.2,0,0.2,0.1v0.1c0,0.1,0,0.1-0.1,0.2c-0.5,0.3-1.1,0.5-1.7,0.5H60c-0.1,0-0.3-0.1-0.5-0.2c-0.1-0.1-0.3-0.2-0.3-0.4
		l-0.1-0.2v-0.2c0-0.1,0-0.2,0-0.2c0-0.1,0-0.1,0.1-0.2c0.1-0.4,0.3-0.7,0.7-1c0.3-0.3,0.7-0.6,1-0.8l0.4-0.2l0.3-0.1h0.2
		c0.2,0,0.4,0,0.7,0.1c0.1,0.1,0.2,0.2,0.2,0.4v0.2c-0.1,0.2-0.2,0.3-0.3,0.5L62.2,58L62.1,58.2L62.1,58.2z M61.8,57.7L61.8,57.7
		L61.8,57.7l0.2-0.3c0,0,0-0.1,0.1-0.1c0,0-0.1-0.1-0.2-0.1l-0.2,0.1h-0.1h-0.1c-0.1,0-0.1,0.1-0.2,0.1c-0.1,0-0.1,0.1-0.2,0.2
		c-0.1,0.1-0.2,0.2-0.3,0.4c0,0.1,0,0.1,0,0.1h0.1C61.1,58.1,61.5,57.9,61.8,57.7z"/>
	<path d="M37.3,42.1C17.3,35.5,5,24.8,5.9,18.9C6.3,16.4,9,15,13.5,15c1.5,0,3.1,0.1,5,0.4v0.1c-0.7,0-1.4-0.1-2-0.1
		c-4,0-6.5,0.8-7.6,2.4C8.1,19,8.1,20.7,9,22.7c2.7,5.9,12,12.2,28.3,19.2V42.1z"/>
	<path d="M18.5,15.5C-4.9,12,5.9,31.7,37.3,42C22.2,35.5,11.9,29,8.9,22.7C6.7,17.4,9.9,15,18.5,15.5z"/>
	<path class="st1" d="M20.2,42.1c-0.5,0-1.1-0.2-1.1-1.4c0-1.6,0.7-4.2,1.5-7.6c0.4-1.5,0.8-3.3,1.3-5.1c0.3-1,0.2-1.5,0-1.7
		c-0.1-0.1-0.2-0.2-0.4-0.2c-0.2,0-0.5,0.1-0.8,0.3l-2.2,1.5h-0.1l-0.3-0.7v-0.1c0.6-0.4,1.2-0.9,1.8-1.3c0.8-0.6,1.6-1.2,2.4-1.7
		c0.7-0.4,1.3-0.7,1.8-0.7c0.4,0,0.6,0.1,0.8,0.3c0.2,0.3,0.3,0.8,0.1,1.3l-2.8,12.3c-0.2,0.8-0.3,1.7-0.1,2
		c0.1,0.1,0.2,0.1,0.4,0.1c0.3,0,0.6-0.1,1.1-0.4l2-1.4h0.1l0.4,0.6v0.1l-0.4,0.3l-0.4,0.3c-0.2,0.2-0.4,0.4-0.7,0.5
		c-0.1,0.1-0.2,0.1-0.3,0.2c-0.2,0.1-0.4,0.3-0.6,0.5C22.3,41.5,21.1,42.1,20.2,42.1z"/>
	<path class="st1" d="M18.2,27.2c1.4-1,2.8-2.1,4.3-3.1c1.8-1.2,3-0.7,2.6,0.9l-2.8,12.3c-0.4,2-0.3,2.8,1.5,1.9l2-1.4
		c0.1,0.2,0.3,0.4,0.4,0.6l-0.4,0.3c-0.5,0.4-0.7,0.6-1,0.9c-0.2,0.2-0.5,0.4-0.9,0.7c-2.7,1.9-4.7,2.5-4.7,0.4
		c0-2.3,1.4-6.9,2.8-12.7c0.6-2.3-0.5-2.1-1.2-1.6l-2.2,1.5L18.2,27.2z"/>
	<path class="st1" d="M32.8,41.8c-0.4,0-0.8,0-1.3-0.1c-1-0.2-1.7-0.6-2.1-1.2c-0.5-0.7-0.5-1.8-0.2-3.2l3.1-19.6
		c0.1-0.6,0-1-0.2-1.2c-0.1-0.2-0.4-0.3-0.7-0.3c-0.1,0-0.1,0-0.2,0l-2,0.1l-0.1-0.1l0.1-0.7l0.1-0.1c2.1-0.2,4.1-0.8,5.9-1.7h0.1
		l0.5,0.4L33,28.8c2.4-3.2,4.8-5.1,7.2-5.8c0.4-0.1,0.8-0.2,1.1-0.2c1.2,0,1.9,0.7,2.2,2.5c0.5,4.7-1.2,9.8-4.2,13.1
		C37.6,40.6,35.2,41.8,32.8,41.8L32.8,41.8z M39.2,25.2c-1.4,0-3.3,1.5-5.1,3.9c-0.7,1-1.2,2.1-1.6,3.5c-0.9,3.7-1.4,6.3,0.3,7.2
		c0.5,0.2,1,0.3,1.5,0.3c2.5,0,4.5-2.3,5.6-6.5c0.5-1.6,0.7-3,0.9-4.3c0.2-1.7,0-2.9-0.5-3.6C40.1,25.4,39.7,25.2,39.2,25.2z"/>
	<path class="st1" d="M29.5,15.5c2.1-0.2,4.1-0.8,6-1.7l0.5,0.4l-2.9,14.9c2.3-3.1,4.7-5.2,7.3-6c2-0.5,2.9,0.3,3.2,2.3
		c0.8,8.3-4.9,17.4-12.1,16.3c-2-0.4-2.9-1.6-2.3-4.3l3.1-19.6c0.1-1-0.1-1.6-1.1-1.5l-2,0.1L29.5,15.5L29.5,15.5z M32.6,32.5
		L32.6,32.5c-1,3.9-1.4,6.4,0.3,7.3c3.1,1.1,5.9-1,7.3-6.2c0.4-1.4,0.7-2.8,0.9-4.3c0.7-5.6-3.2-5.3-6.9-0.2
		C33.3,30.2,32.9,31.4,32.6,32.5z"/>
	<path class="st1" d="M49.4,41.5c-1.3,0-2.6-0.4-3.9-1.1v-0.1c0.4-1.4,0.6-3.1,0.7-4.9l0.1-0.1H47l0.1,0.1v3.2
		c1.3,0.7,2.6,1.1,3.7,1.1l0,0c2.3,0,3.5-1.5,3.9-2.8c0.4-1.2,0.3-2-0.1-2.6c-0.6-0.8-1.9-1.3-4-1.3c-2.4-0.4-4-1.6-4.2-3.4
		c-0.3-2.4,1.8-5.1,5-6.4c0.9-0.4,1.8-0.5,2.7-0.5c1.2,0,2.3,0.3,3.4,1v0.1L56.9,28l0.1-0.1h-0.8l-0.1-0.1v-2
		c-0.9-1.1-2.1-1.7-3.3-1.7c-2.2,0-4,2-4,3.6c-0.1,1.6,1.3,2.6,3.7,2.8c2.8,0.1,4.6,1.1,5,2.8c0.6,2.2-1.2,5.2-4.2,7
		C52,41.2,50.7,41.5,49.4,41.5z"/>
	<path class="st1" d="M57.6,23.6c-1.9-1.1-3.9-1.2-6.1-0.4c-5.8,2.4-7.1,8.7-0.9,9.7c4.4,0.1,4.8,1.9,4.2,4
		c-0.7,2.3-3.5,4.2-7.8,1.7v-3.2h-0.9c-0.1,1.8-0.4,3.5-0.7,4.9c2.7,1.5,5.2,1.5,7.8-0.1c4.9-3,6.7-9.4-0.8-9.7
		c-8.2-0.6-1.1-10.5,3.7-4.7v2H57L57.6,23.6z"/>
	<circle class="st2" cx="24.2" cy="16.6" r="3.7"/>
	
		<radialGradient id="SVGID_1_" cx="2861.2537" cy="4011.7273" r="13.4657" gradientTransform="matrix(0.242 0 0 0.242 -669.3129 -954.9877)" gradientUnits="userSpaceOnUse">
		<stop  offset="0" style="stop-color:#FFFFFF"/>
		<stop  offset="0.66" style="stop-color:#BD462F"/>
		<stop  offset="1" style="stop-color:#A72428"/>
	</radialGradient>
	<circle class="st3" cx="24.2" cy="16.6" r="3.7"/>
</g>
</svg>
